<svg xmlns="http://www.w3.org/2000/svg" viewBox="0 0 418.45 131.59"><defs><style>.cls-1{fill:#58595b;}.cls-2{fill:#fff;}.cls-3{fill:#ec1550;}</style></defs><g id="Camada_2" data-name="Camada 2"><g id="Layer_1" data-name="Layer 1"><path class="cls-1" d="M164.21,48.66V44.05c0-2.11-.88-2.86-3.44-2.86h-9c-2.55,0-3.35.75-3.35,2.86v7.54h12.39c2.56,0,3.44-.75,3.44-2.93"/><path class="cls-1" d="M194.14,41.19H185c-2.48,0-3.36.75-3.36,2.93V60.37H164.17V56c0-2.12-.88-2.87-3.36-2.87h-9.14c-2.48,0-3.36.75-3.36,2.87V90.49h12.5c2.48,0,3.36-.74,3.36-2.93V72.44h17.47v18h12.49c2.48,0,3.37-.74,3.37-2.87V44.12c0-2.18-.89-2.93-3.37-2.93"/><path class="cls-1" d="M415,80.09h-9c-2.56,0-3.44.74-3.44,2.93v7.47H415c2.56,0,3.36-.74,3.36-2.86V83c0-2.19-.8-2.93-3.36-2.93"/><path class="cls-1" d="M415.08,41.19H406c-2.49,0-3.37.75-3.37,2.93V75.71c0,2.12.88,2.87,3.37,2.87h9.13c2.49,0,3.37-.75,3.37-2.87V44.12c0-2.18-.88-2.93-3.37-2.93"/><path class="cls-1" d="M396.77,77.76H374.31V71.18h17.36c2.63,0,3.53-.76,3.53-3V62.06c0-2.12-.9-2.88-3.53-2.88H374.31v-6.1H396c2.63,0,3.54-.75,3.54-2.94V44c0-2.12-.91-2.88-3.54-2.88H361.57c-2.63,0-3.54.76-3.54,2.88V89.75h38.74c2.54,0,3.45-.75,3.45-2.88V80.64c0-2.2-.91-2.88-3.45-2.88"/><path class="cls-1" d="M351.27,41.09h-9.71c-2.47,0-3.29.69-3.29,2.74V89.75h13c2.46,0,3.29-.68,3.29-2.74V43.83c0-2-.83-2.74-3.29-2.74"/><path class="cls-1" d="M313.09,63.16H305V53.08h8.14c3.87,0,6.17,2.06,6.17,5.08s-2.3,5-6.17,5m1.81-22.07H292.21c-2.64,0-3.54.76-3.54,2.88V89.75H301.5c2.63,0,3.45-.75,3.45-2.88V75.15h10.11c12.75,0,21.06-6.09,21.06-16.93s-8.39-17.13-21.22-17.13"/><path class="cls-1" d="M282.57,77.76H262.76V44c0-2.12-.83-2.88-3.46-2.88H250c-2.63,0-3.54.76-3.54,2.88V89.75h36.1c2.56,0,3.46-.75,3.46-2.88V80.64c0-2.2-.9-2.88-3.46-2.88"/><path class="cls-1" d="M240,77.76H217.57V71.18h17.35c2.64,0,3.54-.76,3.54-3V62.06c0-2.12-.9-2.88-3.54-2.88H217.57v-6.1h21.71c2.63,0,3.54-.75,3.54-2.94V44c0-2.12-.91-2.88-3.54-2.88H204.83c-2.64,0-3.54.76-3.54,2.88V89.75H240c2.55,0,3.45-.75,3.45-2.88V80.64c0-2.2-.9-2.88-3.45-2.88"/><rect class="cls-2" x="14.07" y="25.19" width="95.83" height="82.66"/><path class="cls-3" d="M102.33,76.9c0,2.44-1,3.3-3.87,3.3H87.94c-2.86,0-3.87-.86-3.87-3.3V40.54c0-2.52,1-3.38,3.87-3.38H98.46c2.86,0,3.87.86,3.87,3.38Zm-.08,13.71c0,2.44-.92,3.3-3.86,3.3H84v-8.6c0-2.51,1-3.38,4-3.38H98.39c2.94,0,3.86.87,3.86,3.38Zm-22,0c0,2.44-1,3.3-3.88,3.3H62V73.14H41.84V90.53c0,2.52-1,3.38-3.87,3.38H23.58V54.18c0-2.44,1-3.31,3.88-3.31H38c2.86,0,3.87.87,3.87,3.31v5.07H62V40.54c0-2.52,1-3.38,3.87-3.38H76.33c2.86,0,3.88.86,3.88,3.38ZM23.66,40.46c0-2.44.92-3.3,3.87-3.3h10.4c3,0,4,.86,4,3.3v5.31c0,2.51-1,3.37-4,3.37H23.66ZM116.48,0H9.44A9.44,9.44,0,0,0,0,9.43V131.59H116.48a9.44,9.44,0,0,0,9.43-9.44V9.43A9.43,9.43,0,0,0,116.48,0"/></g></g></svg>